<svg width="100" height="100" viewBox="0 0 100 100" fill="none" xmlns="http://www.w3.org/2000/svg">
<path d="M36.3343 72.7566C36.2004 72.7566 36.09 72.8671 36.09 73.0009L36.1098 73.0947C36.1467 73.1816 36.234 73.2424 36.3343 73.2424C36.4341 73.242 36.519 73.1811 36.5559 73.0947L36.5758 73.0009L36.5559 72.9044C36.5312 72.8471 36.4855 72.8009 36.428 72.7765L36.3343 72.7566ZM41.9081 73.0009C41.9076 76.0796 39.4129 78.5743 36.3343 78.5748C33.447 78.5748 31.0711 76.3812 30.786 73.5691L30.7576 73.0009L30.786 72.4299C31.0715 69.6183 33.4473 67.4242 36.3343 67.4242L36.9025 67.4527C39.7145 67.7377 41.9081 70.1137 41.9081 73.0009Z" fill="#F54A00"/>
<path d="M65.6676 72.7566C65.5337 72.7566 65.4233 72.8671 65.4233 73.0009L65.4432 73.0947C65.48 73.1816 65.5673 73.2424 65.6676 73.2424C65.7674 73.242 65.8524 73.1811 65.8892 73.0947L65.9091 73.0009L65.8892 72.9044C65.8646 72.8471 65.8188 72.8009 65.7614 72.7765L65.6676 72.7566ZM71.2415 73.0009C71.241 76.0796 68.7463 78.5743 65.6676 78.5748C62.7803 78.5748 60.4044 76.3812 60.1193 73.5691L60.0909 73.0009L60.1193 72.4299C60.4048 69.6183 62.7807 67.4242 65.6676 67.4242L66.2358 67.4527C69.0479 67.7377 71.2415 70.1137 71.2415 73.0009Z" fill="#F54A00"/>
<path d="M25.7991 19.5576C27.1709 19.5576 28.3583 20.5173 28.6456 21.8587L31.0064 32.89H73.907C74.7892 32.8901 75.6248 33.2928 76.1769 33.9809C76.728 34.6686 76.9386 35.5693 76.7479 36.4297L72.3473 56.2451L72.3445 56.2422C71.9406 58.0726 70.9268 59.7116 69.4667 60.8871C68.0056 62.0633 66.1861 62.7051 64.3104 62.7081H38.228V62.7053C36.3334 62.7329 34.4858 62.1108 32.9979 60.9354C31.6819 59.8956 30.7205 58.4824 30.2309 56.89L30.0491 56.1968L25.8133 36.4269C25.8081 36.4033 25.8037 36.3796 25.7991 36.3559L23.4468 25.3758H20.4667C18.86 25.3758 17.5576 24.0733 17.5576 22.4667C17.5576 20.86 18.86 19.5576 20.4667 19.5576H25.7991ZM35.7366 54.9752C35.8548 55.5265 36.1634 56.0205 36.6059 56.3701C37.0483 56.7195 37.5991 56.9053 38.1627 56.8928C38.184 56.8923 38.2067 56.89 38.228 56.89H64.3019C64.8536 56.8891 65.3892 56.7018 65.8189 56.3559C66.2487 56.0099 66.5469 55.5254 66.6655 54.9866V54.9837L70.2792 38.7081H32.2536L35.7366 54.9752Z" fill="#F54A00"/>
</svg>
