<svg width="31" height="31" viewBox="0 0 31 31" fill="none" xmlns="http://www.w3.org/2000/svg">
<path d="M20.7083 24.875C20.9846 24.875 21.2496 24.7653 21.4449 24.5699C21.6403 24.3746 21.75 24.1096 21.75 23.8333V18.2604C21.75 17.7844 22.0792 17.3812 22.5073 17.176C23.3937 16.7532 24.1023 16.0308 24.5079 15.1363C24.9136 14.2419 24.9903 13.2329 24.7244 12.2875C24.4585 11.342 23.8672 10.5208 23.0549 9.9689C22.2425 9.41697 21.2613 9.16973 20.2844 9.27083C19.882 8.33563 19.2145 7.53885 18.3641 6.979C17.5138 6.41915 16.5181 6.12077 15.5 6.12077C14.4819 6.12077 13.4862 6.41915 12.6359 6.979C11.7855 7.53885 11.118 8.33563 10.7156 9.27083C9.73915 9.17044 8.75858 9.41802 7.94681 9.96993C7.13503 10.5218 6.54418 11.3426 6.27842 12.2876C6.01267 13.2326 6.08907 14.241 6.49417 15.1352C6.89927 16.0293 7.60704 16.7517 8.49271 17.175C8.92083 17.3812 9.25 17.7844 9.25 18.2594V23.8333C9.25 24.1096 9.35975 24.3746 9.5551 24.5699C9.75045 24.7653 10.0154 24.875 10.2917 24.875H20.7083Z" stroke="#F54A00" stroke-width="2" stroke-linecap="round" stroke-linejoin="round"/>
<path d="M9.25 20.7083H21.75" stroke="#F54A00" stroke-width="2" stroke-linecap="round" stroke-linejoin="round"/>
</svg>
