<svg width="100" height="100" viewBox="0 0 100 100" fill="none" xmlns="http://www.w3.org/2000/svg">
<path d="M35.5417 30.75V19.5833C35.5417 18.0415 36.7915 16.7917 38.3333 16.7917C39.8751 16.7917 41.125 18.0415 41.125 19.5833V30.75C41.125 32.2918 39.8751 33.5417 38.3333 33.5417C36.7915 33.5417 35.5417 32.2918 35.5417 30.75Z" fill="#F54A00"/>
<path d="M57.875 30.75V19.5833C57.875 18.0415 59.1249 16.7917 60.6667 16.7917C62.2085 16.7917 63.4583 18.0415 63.4583 19.5833V30.75C63.4583 32.2918 62.2085 33.5417 60.6667 33.5417C59.1249 33.5417 57.875 32.2918 57.875 30.75Z" fill="#F54A00"/>
<path d="M71.8333 30.75C71.8333 29.2082 70.5835 27.9583 69.0417 27.9583H29.9583C28.4165 27.9583 27.1667 29.2082 27.1667 30.75V69.8333C27.1667 71.3751 28.4165 72.625 29.9583 72.625H69.0417C70.5835 72.625 71.8333 71.3751 71.8333 69.8333V30.75ZM77.4167 69.8333C77.4167 74.4587 73.667 78.2083 69.0417 78.2083H29.9583C25.3329 78.2083 21.5833 74.4587 21.5833 69.8333V30.75C21.5833 26.1246 25.3329 22.375 29.9583 22.375H69.0417C73.667 22.375 77.4167 26.1246 77.4167 30.75V69.8333Z" fill="#F54A00"/>
<path d="M74.625 39.125C76.1668 39.125 77.4167 40.3749 77.4167 41.9167C77.4167 43.4585 76.1668 44.7083 74.625 44.7083H24.375C22.8332 44.7083 21.5833 43.4585 21.5833 41.9167C21.5833 40.3749 22.8332 39.125 24.375 39.125H74.625Z" fill="#F54A00"/>
</svg>
