<svg width="100" height="100" viewBox="0 0 100 100" fill="none" xmlns="http://www.w3.org/2000/svg">
<path d="M67.8183 49.9473C67.8183 48.3381 68.2069 46.7519 68.9492 45.3242C69.6915 43.8966 70.7667 42.6684 72.0839 41.7441C72.8824 41.1631 73.4397 40.3077 73.6484 39.3418C73.859 38.3664 73.6991 37.3466 73.2002 36.4824C72.701 35.6185 71.8971 34.9711 70.9472 34.666C69.9966 34.3611 68.9646 34.4203 68.0556 34.833C66.6041 35.5039 65.0128 35.8168 63.415 35.7471C61.8071 35.6768 60.2388 35.2212 58.8447 34.417C57.4508 33.6127 56.2709 32.4836 55.4052 31.127C54.5397 29.7702 54.012 28.2242 53.8701 26.6211V26.6182C53.7709 25.6305 53.3099 24.7141 52.5752 24.0459C51.8353 23.373 50.8711 23.0001 49.8711 23C48.871 23 47.9069 23.3732 47.167 24.0459C46.4272 24.7187 45.964 25.6432 45.8691 26.6387C45.8596 26.7387 45.844 26.838 45.8252 26.9346C45.6457 28.425 45.1398 29.8591 44.331 31.127C43.4654 32.4838 42.2856 33.6126 40.8916 34.417C39.4974 35.2214 37.9293 35.6767 36.3212 35.7471C34.7131 35.8174 33.1105 35.501 31.6513 34.8213V34.8184C30.7504 34.42 29.7334 34.3673 28.7949 34.6689C27.8456 34.9742 27.0438 35.622 26.5449 36.4854C26.046 37.3492 25.8865 38.3696 26.0966 39.3447C26.3071 40.3192 26.8716 41.1804 27.6816 41.7617H27.6787C28.9849 42.684 30.0522 43.9052 30.79 45.3242C31.5322 46.7519 31.9209 48.3382 31.9209 49.9473C31.9207 51.5557 31.5318 53.1402 30.79 54.5674C30.0519 55.9869 28.9827 57.2074 27.6757 58.1299L27.6787 58.1328C26.8679 58.7139 26.3016 59.5749 26.0908 60.5498C25.8801 61.5256 26.0396 62.5477 26.539 63.4121C27.0385 64.276 27.8417 64.9238 28.792 65.2285C29.742 65.5332 30.772 65.4736 31.6806 65.0615C33.1329 64.3893 34.7251 64.0751 36.3242 64.1445C37.9325 64.2144 39.4999 64.6704 40.8945 65.4746C42.2892 66.2791 43.4709 67.4073 44.3369 68.7646C45.1992 70.1165 45.722 71.6562 45.8662 73.2529H45.8691C45.9638 74.2487 46.4269 75.1727 47.167 75.8457C47.907 76.5186 48.8709 76.8916 49.8711 76.8916C50.8712 76.8915 51.8352 76.5186 52.5752 75.8457C53.315 75.1727 53.7784 74.2486 53.873 73.2529C54.0173 71.6567 54.5432 70.119 55.4052 68.7676C56.2709 67.4106 57.4505 66.282 58.8447 65.4775C60.2389 64.6731 61.8068 64.2148 63.415 64.1445C65.0131 64.0748 66.6039 64.3904 68.0556 65.0615L68.4013 65.1992C69.2206 65.4832 70.1152 65.4954 70.9472 65.2285C71.8972 64.9236 72.7009 64.2759 73.2002 63.4121C73.6995 62.5477 73.8591 61.5256 73.6484 60.5498C73.4376 59.5751 72.8709 58.7139 72.0605 58.1328V58.1299C70.7541 57.2075 69.687 55.9865 68.9492 54.5674C68.2072 53.1401 67.8185 51.5559 67.8183 49.9473ZM73.8183 49.9473C73.8185 50.5925 73.9748 51.2293 74.2724 51.8018C74.4956 52.2306 74.7937 52.6141 75.1513 52.9355L75.5293 53.2373L75.5527 53.2549C77.5753 54.7038 78.9884 56.8522 79.5136 59.2842C80.0388 61.7163 79.6392 64.2576 78.3945 66.4121C77.1497 68.5666 75.1476 70.1815 72.7783 70.9414C70.4092 71.7012 67.8426 71.5508 65.5771 70.5225L65.5478 70.5107C64.9628 70.2385 64.3204 70.1105 63.6757 70.1387C63.0307 70.1669 62.401 70.3492 61.8418 70.6719C61.2824 70.9946 60.8092 71.4488 60.4619 71.9932C60.1147 72.5375 59.9035 73.1577 59.8466 73.8008V73.8213C59.6106 76.3029 58.4563 78.6068 56.6123 80.2842C54.7678 81.9616 52.3642 82.8915 49.8711 82.8916C47.3777 82.8916 44.9744 81.9617 43.1298 80.2842C41.2855 78.6068 40.1315 76.3032 39.8955 73.8213L39.8925 73.8008C39.8358 73.1574 39.6246 72.5377 39.2773 71.9932C38.9299 71.4485 38.457 70.9947 37.8974 70.6719C37.3379 70.3491 36.7088 70.1667 36.0634 70.1387C35.4184 70.1107 34.7765 70.238 34.1914 70.5107L34.1621 70.5225C31.8967 71.5509 29.33 71.7009 26.9609 70.9414C24.5916 70.1815 22.5894 68.5665 21.3447 66.4121C20.0999 64.2576 19.7004 61.7164 20.2255 59.2842C20.7508 56.8522 22.1638 54.7037 24.1865 53.2549L24.2099 53.2373C24.7379 52.8667 25.169 52.374 25.4668 51.8018C25.7644 51.2293 25.9207 50.5925 25.9209 49.9473C25.9209 49.302 25.7643 48.6653 25.4668 48.0928C25.169 47.52 24.7383 47.0251 24.2099 46.6543L24.1836 46.6367C22.1636 45.187 20.7553 43.038 20.2314 40.6074C19.7075 38.1769 20.1042 35.6385 21.3476 33.4854C22.591 31.3322 24.5909 29.7171 26.958 28.9561C29.0285 28.2904 31.2515 28.3197 33.292 29.0234L34.1562 29.3662L34.1855 29.3809C34.7705 29.6534 35.4128 29.7809 36.0576 29.7529C36.7025 29.7247 37.3324 29.5422 37.8916 29.2197C38.4509 28.897 38.9241 28.4429 39.2714 27.8984C39.6187 27.354 39.8298 26.7341 39.8867 26.0908C39.8977 25.9662 39.9168 25.8439 39.9423 25.7246C40.2488 23.3757 41.3718 21.2063 43.1298 19.6074C44.9744 17.9301 47.3779 17 49.8711 17C52.3642 17.0001 54.7678 17.93 56.6123 19.6074C58.2262 21.0753 59.3109 23.0234 59.7148 25.1504L59.8466 26.0732V26.0908C59.9035 26.7337 60.1149 27.3542 60.4619 27.8984C60.8091 28.4427 61.2826 28.897 61.8418 29.2197C62.401 29.5424 63.0307 29.7247 63.6757 29.7529C64.3206 29.7811 64.9627 29.6532 65.5478 29.3809L65.5771 29.3691C67.8424 28.341 70.4094 28.1905 72.7783 28.9502C75.1475 29.7101 77.1497 31.3252 78.3945 33.4795C79.6392 35.6339 80.0387 38.1754 79.5136 40.6074C78.9885 43.0396 77.5755 45.1907 75.5527 46.6396L75.5293 46.6543C75.0008 47.0251 74.5702 47.52 74.2724 48.0928C73.9747 48.6655 73.8183 49.3018 73.8183 49.9473Z" fill="#F54A00"/>
<path d="M56 50C56 46.6863 53.3137 44 50 44C46.6863 44 44 46.6863 44 50C44 53.3137 46.6863 56 50 56C53.3137 56 56 53.3137 56 50ZM62 50C62 56.6274 56.6274 62 50 62C43.3726 62 38 56.6274 38 50C38 43.3726 43.3726 38 50 38C56.6274 38 62 43.3726 62 50Z" fill="#F54A00"/>
</svg>
